<svg xmlns="http://www.w3.org/2000/svg" viewBox="0 0 16 16" width="48">
	<path fill="#fff" d="M3.2 1.6c0 .88-.72 1.6-1.6 1.6C.71 3.2 0 2.48 0 1.6 0 .71.71 0 1.6 0c.88 0 1.6.71 1.6 1.6zM16 1.6c0 .88-.72 1.6-1.6 1.6-.88 0-1.6-.72-1.6-1.6 0-.89.72-1.6 1.6-1.6.88 0 1.6.71 1.6 1.6zM9.6 1.6c0 .88-.72 1.6-1.6 1.6-.88 0-1.6-.72-1.6-1.6C6.4.71 7.12 0 8 0c.88 0 1.6.71 1.6 1.6zM3.2 14.4c0 .88-.72 1.6-1.6 1.6-.88 0-1.6-.72-1.6-1.6 0-.88.72-1.6 1.6-1.6.88 0 1.6.72 1.6 1.6zM16 14.4c0 .88-.72 1.6-1.6 1.6-.88 0-1.6-.72-1.6-1.6 0-.88.72-1.6 1.6-1.6.88 0 1.6.72 1.6 1.6zM9.6 14.4c0 .88-.72 1.6-1.6 1.6-.88 0-1.6-.72-1.6-1.6 0-.88.72-1.6 1.6-1.6.88 0 1.6.72 1.6 1.6zM3.2 8c0 .88-.72 1.6-1.6 1.6C.72 9.6 0 8.88 0 8c0-.88.72-1.6 1.6-1.6.88 0 1.6.72 1.6 1.6zM16 8c0 .88-.71 1.6-1.6 1.6-.88 0-1.6-.72-1.6-1.6 0-.88.72-1.6 1.6-1.6.89 0 1.6.72 1.6 1.6zM9.6 8c0 .88-.71 1.6-1.6 1.6-.88 0-1.6-.72-1.6-1.6 0-.88.72-1.6 1.6-1.6.89 0 1.6.72 1.6 1.6z" />
</svg>
