<svg xmlns="http://www.w3.org/2000/svg" viewBox="0 0 518.73 167.44" width="120">
	<path fill="#2c3446" d="M116.78 90.03l-15-42.59-35.61 2.31L82.2 89.61l34.58.42z" />
	<path fill="#1e88e5" d="M144.06 167.44l-26.14-74.18-34.42-.43 28.26 70.29 32.3 4.32z" />
	<path fill="#e53935" d="M94.16 127.96L80.02 92.79l-30.98-.38 14.85 33.2 30.27 2.35z" />
	<path fill="#1e88e5" d="M0 54.04l16.95 34.77 61.77.76-15.92-39.6L0 54.04z" />
	<path fill="#43a047" d="M135.89 72.35l-13.14-41.09-17.98 15.02 14.95 42.43 16.17-16.36z" />
	<path fill="#e53935" d="M160.14 148.15L137 75.8l-16.09 16.28 26.04 73.91 13.19-17.84z" />
	<path fill="#43a047" d="M164.86 92.97L154.68 57.9l-15.14 15.32 11.54 36.08 13.78-16.33zM169.54 38.3L159.56.64l-34.12 28.52 13 40.61 31.1-31.47z" />
	<path fill="#2c3446" d="M85.93 33.52L69.02 46.35l33.19-2.15 16.36-13.64-32.64 2.96zM124.86 4.03L90.82 29.86l32.09-2.92L155.15 0l-30.29 4.03z" />
	<path fill="#1e88e5" d="M20.36 39.48L3.46 50.6l59.81-3.88 16.68-12.65-59.59 5.41z" />
	<path fill="#e53935" d="M72.33 21.84L56.46 32.98l28.32-2.57 15.46-11.74-27.91 3.17z" />
	<path fill="#fff" d="M267.15 139.14h-21.92l-20.7-31h-8.77v31h-19v-79h35.56q15.59 0 22.77 3.77t7.19 12.91v13.85q0 7.18-5.18 11.08a26.36 26.36 0 0 1-12.85 4.87zM243.64 86.9v-5.6q0-4.39-2.61-6t-8.95-1.65h-16.32v21.89h16.32c4.46 0 7.5-.58 9.13-1.76s2.43-3.47 2.43-6.88zM334.25 139.14h-17.54V132q-2.07 8.42-18.88 8.41-11.68 0-16.07-4.2t-4.38-12.73V80.2h17.77V121q0 4.88 1.65 6.58t7.85 1.71c5.12 0 8.36-.55 9.75-1.65s2.07-3.31 2.07-6.64V80.2h17.78zM410.23 98.83v19.36q0 12.06-7.24 17.11t-23.32 5.06q-16.94 0-23.38-5.3t-6.46-16.87V53.9h17.78V86a9.34 9.34 0 0 1 5.91-5.54Q377.84 79 386.73 79A51.06 51.06 0 0 1 399 80.2a13.26 13.26 0 0 1 10.41 10 38 38 0 0 1 .82 8.63zm-17.78 21.68v-21.8c0-3.82-.71-6.23-2.13-7.25s-4.93-1.52-10.53-1.52c-5 0-8.32.65-9.87 2s-2.31 3.57-2.31 6.82v21.8q0 5.24 2.25 7t10.05 1.77q7.79 0 10.17-1.77t2.37-7.05zM442.38 73.26H424.6V58.89h17.78zm0 65.88H424.6V80.2h17.78zM518.73 139.14h-20.58l-12.91-18.51-12.78 18.51h-20.58l23.12-30.2-21.9-28.74h20.58l11.56 16.93 11.69-16.93h20.59l-22 28.74zM88.51 156.39H86v6.78h-1.19v-6.78h-2.57v-.8h6.27zM97.85 163.17h-1v-6.41h-.05l-2.44 6.41h-1l-2.51-6.41h-.06v6.41h-1v-7.58h1.69l2.43 6.3 2.3-6.32h1.63z" />
</svg>